<mxfile host="app.diagrams.net" modified="2022-08-06T01:25:41.788Z" agent="5.0 (Macintosh; Intel Mac OS X 10_15_7) AppleWebKit/537.36 (KHTML, like Gecko) Chrome/104.0.0.0 Safari/537.36" etag="1DKUXo-_JE7dGsWqM-Ss" version="20.2.2" type="github">
  <diagram id="3228e29e-7158-1315-38df-8450db1d8a1d" name="Page-1">
    <mxGraphModel dx="561" dy="235" grid="0" gridSize="10" guides="1" tooltips="1" connect="1" arrows="1" fold="1" page="1" pageScale="1" pageWidth="1500" pageHeight="500" background="#EFF1F3" math="0" shadow="0">
      <root>
        <mxCell id="0" />
        <mxCell id="1" parent="0" />
        <mxCell id="LAb_7srbYK68rinMSWDs-9" value="" style="shape=flexArrow;endArrow=classic;startArrow=classic;html=1;shadow=0;startSize=5;sourcePerimeterSpacing=0;targetPerimeterSpacing=0;strokeColor=none;strokeWidth=10;fillColor=#FDD276;endSize=5;" parent="1" edge="1">
          <mxGeometry width="50" height="50" relative="1" as="geometry">
            <mxPoint x="168" y="765.25" as="sourcePoint" />
            <mxPoint x="268" y="764.5" as="targetPoint" />
          </mxGeometry>
        </mxCell>
        <mxCell id="c7gIeQ4KLr-0-EGLMsei-3" value="" style="shape=image;verticalLabelPosition=bottom;verticalAlign=top;imageAspect=0;aspect=fixed;image=data:image/svg+xml,PHN2ZyB4bWxuczp4bGluaz0iaHR0cDovL3d3dy53My5vcmcvMTk5OS94bGluayIgeG1sbnM9Imh0dHA6Ly93d3cudzMub3JnLzIwMDAvc3ZnIiBoZWlnaHQ9IjIwMCIgd2lkdGg9IjIwMCIgdmVyc2lvbj0iMS4xIiB2aWV3Qm94PSIwIDAgMTAyNCAxMDI0IiBjbGFzcz0iaWNvbiI+PGRlZnM+PHN0eWxlIHR5cGU9InRleHQvY3NzIj5AZm9udC1mYWNlIHsgZm9udC1mYW1pbHk6IGZlZWRiYWNrLWljb25mb250OyBzcmM6IHVybCgiLy9hdC5hbGljZG4uY29tL3QvZm9udF8xMDMxMTU4X3U2OXc4eWh4ZHUud29mZjI/dD0xNjMwMDMzNzU5OTQ0IikgZm9ybWF0KCJ3b2ZmMiIpLCB1cmwoIi8vYXQuYWxpY2RuLmNvbS90L2ZvbnRfMTAzMTE1OF91Njl3OHloeGR1LndvZmY/dD0xNjMwMDMzNzU5OTQ0IikgZm9ybWF0KCJ3b2ZmIiksIHVybCgiLy9hdC5hbGljZG4uY29tL3QvZm9udF8xMDMxMTU4X3U2OXc4eWh4ZHUudHRmP3Q9MTYzMDAzMzc1OTk0NCIpIGZvcm1hdCgidHJ1ZXR5cGUiKTsgfSYjeGE7PC9zdHlsZT48L2RlZnM+PHBhdGggZmlsbD0iIzRBOTE5QiIgZD0iTTg0Mi4zOTQ1OTUgNzk5LjczMzIzNyA2NDAuOTczMDc2IDc5OS43MzMyMzcgNjQwLjk3MzA3NiA5MTQuODI1NTA4bDU3LjU0OTAwNSAwYzE1LjkwMzg1MyAwIDI4Ljc3NDUwMyAxMi44NjkwOTkgMjguNzc0NTAzIDI4Ljc3MzMyNCAwIDE1LjkwMzIwMi0xMi44NzA2NDkgMjguNzcyMy0yOC43NzQ1MDMgMjguNzcyM0wzNTMuMjI4MDUgOTcyLjM3MTEzMmMtMTUuOTA0ODc3IDAtMjguNzc0NTAzLTEyLjg2OTA5OS0yOC43NzQ1MDMtMjguNzcyMyAwLTE1LjkwNDIyNSAxMi44Njk2MjYtMjguNzczMzI0IDI4Ljc3NDUwMy0yOC43NzMzMjRsNTcuNTQ5MDA1IDBMNDEwLjc3NzA1NSA3OTkuNzMzMjM3IDE4MC41ODEwMzQgNzk5LjczMzIzN2MtNjMuNTYyMTk5IDAtMTE1LjA5ODAxMS01MS41MzM3LTExNS4wOTgwMTEtMTE1LjA5MzI5NUw2NS40ODMwMjMgMTY2LjcyMDExNmMwLTYzLjU1OTU5NSA1MS41MzU4MTItMTE1LjA5MzI5NSAxMTUuMDk4MDExLTExNS4wOTMyOTVsNjYxLjgxMjUzNyAwYzYzLjU2MTE3NiAwIDExNS4wOTgwMTEgNTEuNTMzNyAxMTUuMDk4MDExIDExNS4wOTMyOTVsMCA1MTcuOTE5ODI2Qzk1Ny40OTE1ODIgNzQ4LjE5ODUxMyA5MDUuOTU1NzcgNzk5LjczMzIzNyA4NDIuMzk0NTk1IDc5OS43MzMyMzd6TTU4My40MjQwNzEgOTE0LjgyNTUwOCA1ODMuNDI0MDcxIDc5OS43MzMyMzcgNDY4LjMyNjA2IDc5OS43MzMyMzcgNDY4LjMyNjA2IDkxNC44MjU1MDggNTgzLjQyNDA3MSA5MTQuODI1NTA4ek04OTkuOTQyNTc3IDE2Ni43MjAxMTZjMC0zMS43Nzk3OTctMjUuNzY3OTA2LTU3LjU0NjY0Ny01Ny41NDc5ODItNTcuNTQ2NjQ3TDE4MC41ODEwMzQgMTA5LjE3MzQ2OGMtMzEuNzgxMDk5IDAtNTcuNTQ5MDA1IDI1Ljc2Njg1LTU3LjU0OTAwNSA1Ny41NDY2NDdsMCA0MDIuODI2NTMyTDg5OS45NDI1NzcgNTY5LjU0NjY0NyA4OTkuOTQyNTc3IDE2Ni43MjAxMTZ6TTg5OS45NDI1NzcgNjI3LjA5MzI5NSAxMjMuMDMzMDUyIDYyNy4wOTMyOTVsMCA1Ny41NDY2NDdjMCAzMS43Nzk3OTcgMjUuNzY3OTA2IDU3LjU0NTYyNCA1Ny41NDkwMDUgNTcuNTQ1NjI0bDY2MS44MTI1MzcgMGMzMS43ODEwOTkgMCA1Ny41NDc5ODItMjUuNzY2ODUgNTcuNTQ3OTgyLTU3LjU0NTYyNEw4OTkuOTQyNTc3IDYyNy4wOTMyOTV6Ii8+PC9zdmc+" parent="1" vertex="1">
          <mxGeometry x="47" y="689" width="128" height="128" as="geometry" />
        </mxCell>
        <mxCell id="c7gIeQ4KLr-0-EGLMsei-48" style="edgeStyle=none;rounded=0;orthogonalLoop=1;jettySize=auto;html=1;exitX=1;exitY=0.75;exitDx=0;exitDy=0;entryX=0;entryY=0.5;entryDx=0;entryDy=0;entryPerimeter=0;endArrow=none;endFill=0;elbow=vertical;strokeColor=#4A919B;" parent="1" source="c7gIeQ4KLr-0-EGLMsei-6" target="c7gIeQ4KLr-0-EGLMsei-9" edge="1">
          <mxGeometry relative="1" as="geometry" />
        </mxCell>
        <mxCell id="c7gIeQ4KLr-0-EGLMsei-49" style="edgeStyle=none;rounded=0;orthogonalLoop=1;jettySize=auto;html=1;exitX=1;exitY=0.75;exitDx=0;exitDy=0;entryX=0;entryY=0.5;entryDx=0;entryDy=0;entryPerimeter=0;endArrow=none;endFill=0;elbow=vertical;strokeColor=#4A919B;" parent="1" source="c7gIeQ4KLr-0-EGLMsei-6" target="c7gIeQ4KLr-0-EGLMsei-11" edge="1">
          <mxGeometry relative="1" as="geometry" />
        </mxCell>
        <mxCell id="c7gIeQ4KLr-0-EGLMsei-6" value="" style="shape=image;verticalLabelPosition=bottom;verticalAlign=top;imageAspect=0;aspect=fixed;image=data:image/svg+xml,PHN2ZyB4bWxuczp4bGluaz0iaHR0cDovL3d3dy53My5vcmcvMTk5OS94bGluayIgeG1sbnM9Imh0dHA6Ly93d3cudzMub3JnLzIwMDAvc3ZnIiBoZWlnaHQ9IjIwMCIgd2lkdGg9IjIwMCIgdmVyc2lvbj0iMS4xIiB2aWV3Qm94PSIwIDAgMTAyNCAxMDI0IiBjbGFzcz0iaWNvbiI+PGRlZnM+PHN0eWxlIHR5cGU9InRleHQvY3NzIj5AZm9udC1mYWNlIHsgZm9udC1mYW1pbHk6IGZlZWRiYWNrLWljb25mb250OyBzcmM6IHVybCgiLy9hdC5hbGljZG4uY29tL3QvZm9udF8xMDMxMTU4X3U2OXc4eWh4ZHUud29mZjI/dD0xNjMwMDMzNzU5OTQ0IikgZm9ybWF0KCJ3b2ZmMiIpLCB1cmwoIi8vYXQuYWxpY2RuLmNvbS90L2ZvbnRfMTAzMTE1OF91Njl3OHloeGR1LndvZmY/dD0xNjMwMDMzNzU5OTQ0IikgZm9ybWF0KCJ3b2ZmIiksIHVybCgiLy9hdC5hbGljZG4uY29tL3QvZm9udF8xMDMxMTU4X3U2OXc4eWh4ZHUudHRmP3Q9MTYzMDAzMzc1OTk0NCIpIGZvcm1hdCgidHJ1ZXR5cGUiKTsgfSYjeGE7PC9zdHlsZT48L2RlZnM+PHBhdGggZmlsbD0iIzRBOTE5QiIgZD0iTTk2MCA5NDRINjRjLTM1LjI5NiAwLTY0LTI4LjcwNC02NC02NFY2NTZjMC0zNS4yOTYgMjguNzA0LTY0IDY0LTY0aDg5NmMzNS4yOTYgMCA2NCAyOC43MDQgNjQgNjR2MjI0YzAgMzUuMjk2LTI4LjcwNCA2NC02NCA2NHpNNjQgNjI0Yy0xNy42NDggMC0zMiAxNC4zNTItMzIgMzJ2MjI0YzAgMTcuNjQ4IDE0LjM1MiAzMiAzMiAzMmg4OTZjMTcuNjQ4IDAgMzItMTQuMzUyIDMyLTMyVjY1NmMwLTE3LjY0OC0xNC4zNTItMzItMzItMzJINjR6Ii8+PHBhdGggZmlsbD0iIzRBOTE5QiIgZD0iTTI0MCAxMDA4SDExMmExNiAxNiAwIDAgMS0xNi0xNnYtNjRhMTYgMTYgMCAwIDEgMTYtMTZoMTI4YTE2IDE2IDAgMCAxIDE2IDE2djY0YTE2IDE2IDAgMCAxLTE2IDE2eiBtLTExMi0zMmg5NnYtMzJIMTI4djMyek05MTIgMTAwOGgtMTI4YTE2IDE2IDAgMCAxLTE2LTE2di02NGExNiAxNiAwIDAgMSAxNi0xNmgxMjhhMTYgMTYgMCAwIDEgMTYgMTZ2NjRhMTYgMTYgMCAwIDEtMTYgMTZ6IG0tMTEyLTMyaDk2di0zMmgtOTZ2MzJ6TTg1Ni42NTYgNDYwLjE2YTE1Ljk4NCAxNS45ODQgMCAwIDEtNi44MTYtMzAuNDk2QzkxNi43NjggMzk4LjI3MiA5NjAgMzMwLjA5NiA5NjAgMjU2YzAtMTA1Ljg3Mi04Ni4xMjgtMTkyLTE5Mi0xOTJTNTc2IDE1MC4xMjggNTc2IDI1NmMwIDc0LjA4IDQzLjIzMiAxNDIuMjcyIDExMC4xNiAxNzMuNjY0YTE2IDE2IDAgMCAxLTEzLjYgMjguOTc2QzU5NC40OCA0MjEuOTg0IDU0NCAzNDIuNDQ4IDU0NCAyNTZjMC0xMjMuNTIgMTAwLjQ4LTIyNCAyMjQtMjI0czIyNCAxMDAuNDggMjI0IDIyNGMwIDg2LjQ0OC01MC40NjQgMTY1Ljk4NC0xMjguNTYgMjAyLjY0YTE1Ljk2OCAxNS45NjggMCAwIDEtNi43ODQgMS41MnoiLz48cGF0aCBmaWxsPSIjNEE5MTlCIiBkPSJNODUzLjI5NiAzODcuODRhMTYgMTYgMCAwIDEtOS40ODgtMjguODk2QTEyOC4yNCAxMjguMjQgMCAwIDAgODk2IDI1NmMwLTcwLjU3Ni01Ny40MjQtMTI4LTEyOC0xMjhzLTEyOCA1Ny40MjQtMTI4IDEyOGExMjguMjQgMTI4LjI0IDAgMCAwIDUyLjE5MiAxMDIuOTQ0IDE2IDE2IDAgMCAxLTE4Ljk0NCAyNS43OTJBMTYwLjMzNiAxNjAuMzM2IDAgMCAxIDYwOCAyNTZjMC04OC4yMjQgNzEuNzc2LTE2MCAxNjAtMTYwczE2MCA3MS43NzYgMTYwIDE2MGMwIDUwLjYwOC0yNC4zODQgOTguNzItNjUuMjQ4IDEyOC43MzZhMTUuOTIgMTUuOTIgMCAwIDEtOS40NCAzLjEwNHoiLz48cGF0aCBmaWxsPSIjNEE5MTlCIiBkPSJNODQ3LjY5NiAyNzYuNDhhMTYgMTYgMCAwIDEtMTUuNjY0LTE5LjM5MkM4MzIgMjIwLjY4OCA4MDMuMzEyIDE5MiA3NjggMTkycy02NCAyOC43MDQtNjQgNjRjMS44NzIgOC42NC0zLjYzMiAxNy42OTYtMTIuMjcyIDE5LjU2OC04LjU5MiAxLjg4OC0xNy4xODQtMy4wNC0xOS4wNTYtMTEuNjhDNjcyIDI2MC43MzYgNjcyIDI1Ny44ODggNjcyIDI1NmMwLTUyLjk0NCA0My4wNTYtOTYgOTYtOTZzOTYgNDMuMDU2IDk2IDk2YzAgMS45MDQgMCA0Ljc1Mi0wLjY3MiA3Ljg3MmExNi4wMTYgMTYuMDE2IDAgMCAxLTE1LjYzMiAxMi42MDh6Ii8+PHBhdGggZmlsbD0iIzRBOTE5QiIgZD0iTTgwMC4zMiA2MjRINzM2YTE1LjkzNiAxNS45MzYgMCAwIDEtMTEuNTY4LTQuOTYgMTUuOTA0IDE1LjkwNCAwIDAgMS00LjQxNi0xMS43NmwxNS4yNjQtMzM2LjAxNmEzMi43MzYgMzIuNzM2IDAgMCAxIDY1LjQyNCAwbDE1LjEzNiAzMzIuODMyQTE2IDE2IDAgMCAxIDgwMC4zMiA2MjR6IG0tNDcuNTItMzJoMzAuNDQ4bC0xNC41MTItMzE5LjI5Nkw3NTIuOCA1OTJ6TTE0NCA4MTZjLTI2LjQ2NCAwLTQ4LTIxLjUzNi00OC00OHMyMS41MzYtNDggNDgtNDggNDggMjEuNTM2IDQ4IDQ4LTIxLjUzNiA0OC00OCA0OHogbTAtNjRhMTYgMTYgMCAxIDAgMC4wMTYgMzIuMDE2QTE2IDE2IDAgMCAwIDE0NCA3NTJ6TTI3MiA4MTZjLTI2LjQ2NCAwLTQ4LTIxLjUzNi00OC00OHMyMS41MzYtNDggNDgtNDggNDggMjEuNTM2IDQ4IDQ4LTIxLjUzNiA0OC00OCA0OHogbTAtNjRhMTYgMTYgMCAxIDAgMC4wMTYgMzIuMDE2QTE2IDE2IDAgMCAwIDI3MiA3NTJ6TTQwMCA4MTZjLTI2LjQ2NCAwLTQ4LTIxLjUzNi00OC00OHMyMS41MzYtNDggNDgtNDggNDggMjEuNTM2IDQ4IDQ4LTIxLjUzNiA0OC00OCA0OHogbTAtNjRhMTYgMTYgMCAxIDAgMC4wMTYgMzIuMDE2QTE2IDE2IDAgMCAwIDQwMCA3NTJ6TTk0NCA4ODBjLTQuMTYgMC04LjMyLTEuNzYtMTEuMzYtNC42NEExNi44IDE2LjggMCAwIDEgOTI4IDg2NGMwLTQuMzIgMS43Ni04LjMyIDQuNjQtMTEuMzYgNS45Mi01LjkyIDE2LjgtNS45MiAyMi43MiAwIDIuODggMy4wNCA0LjY0IDcuMiA0LjY0IDExLjM2cy0xLjc2IDguMzItNC42NCAxMS4zNmMtMy4wNCAyLjg4LTcuMiA0LjY0LTExLjM2IDQuNjR6TTg4MCA4ODBjLTQuMTYgMC04LjMyLTEuNzYtMTEuMzYtNC42NC0yLjg4LTMuMDQtNC42NC03LjItNC42NC0xMS4zNnMxLjc2LTguMzIgNC42NC0xMS4zNmM1LjkyLTUuOTIgMTYuNjQtNS45MiAyMi43MiAwIDIuODggMy4wNCA0LjY0IDcuMiA0LjY0IDExLjM2cy0xLjc2IDguMzItNC42NCAxMS4zNmMtMy4wNCAzLjA0LTcuMiA0LjY0LTExLjM2IDQuNjR6TTgxNiA4ODBjLTQuMzIgMC04LjMyLTEuNzYtMTEuMzYtNC42NC0yLjg4LTMuMDQtNC42NC03LjItNC42NC0xMS4zNnMxLjc2LTguMzIgNC42NC0xMS4zNmM1LjkyLTUuOTIgMTYuOC01LjkyIDIyLjcyIDAgMi44OCAzLjA0IDQuNjQgNy4yIDQuNjQgMTEuMzZzLTEuNzYgOC4zMi00LjY0IDExLjM2Yy0zLjA0IDIuODgtNy4yIDQuNjQtMTEuMzYgNC42NHpNNzUyIDg4MGMtNC4xNiAwLTguMzItMS43Ni0xMS4zNi00LjY0LTIuODgtMy4wNC00LjY0LTcuMi00LjY0LTExLjM2czEuNzYtOC4zMiA0LjY0LTExLjM2YzYuMDgtNS45MiAxNi42NC01LjkyIDIyLjcyIDAgMi44OCAzLjA0IDQuNjQgNy4yIDQuNjQgMTEuMzZzLTEuNzYgOC4zMi00LjY0IDExLjM2Yy0zLjA0IDIuODgtNy4yIDQuNjQtMTEuMzYgNC42NHpNOTQ0IDgxNmMtNC4xNiAwLTguMzItMS43Ni0xMS4zNi00LjY0QTE2LjggMTYuOCAwIDAgMSA5MjggODAwYzAtNC4zMiAxLjc2LTguMzIgNC42NC0xMS4zNiA1LjkyLTUuOTIgMTYuOC01LjkyIDIyLjcyIDAgMi44OCAzLjA0IDQuNjQgNy4yIDQuNjQgMTEuMzZzLTEuNzYgOC4zMi00LjY0IDExLjM2Yy0zLjA0IDIuODgtNy4yIDQuNjQtMTEuMzYgNC42NHpNODgwIDgxNmMtNC4xNiAwLTguMzItMS43Ni0xMS4zNi00LjY0QTE2LjggMTYuOCAwIDAgMSA4NjQgODAwYzAtNC4zMiAxLjc2LTguMzIgNC42NC0xMS4zNiA1LjkyLTUuOTIgMTYuNjQtNS45MiAyMi43MiAwIDIuODggMy4wNCA0LjY0IDcuMiA0LjY0IDExLjM2cy0xLjc2IDguMzItNC42NCAxMS4zNmMtMy4wNCAyLjg4LTcuMiA0LjY0LTExLjM2IDQuNjR6TTgxNiA4MTZjLTQuMTYgMC04LjMyLTEuNzYtMTEuMzYtNC42NC0yLjg4LTMuMDQtNC42NC03LjItNC42NC0xMS4zNnMxLjc2LTguMzIgNC42NC0xMS4zNmM1LjkyLTUuOTIgMTYuOC01LjkyIDIyLjcyIDAgMi44OCAzLjA0IDQuNjQgNy4yIDQuNjQgMTEuMzZzLTEuNzYgOC4zMi00LjY0IDExLjM2Yy0zLjA0IDIuODgtNy4yIDQuNjQtMTEuMzYgNC42NHpNOTQ0IDc1MmMtNC4xNiAwLTguMzItMS43Ni0xMS4zNi00LjY0QTE2LjggMTYuOCAwIDAgMSA5MjggNzM2YzAtNC4zMiAxLjc2LTguMzIgNC42NC0xMS4zNiA1LjkyLTUuOTIgMTYuOC01LjkyIDIyLjcyIDAgMi44OCAzLjA0IDQuNjQgNy4yIDQuNjQgMTEuMzZzLTEuNzYgOC4zMi00LjY0IDExLjM2Yy0zLjA0IDIuODgtNy4yIDQuNjQtMTEuMzYgNC42NHpNODgwIDc1MmMtNC4xNiAwLTguMzItMS43Ni0xMS4zNi00LjY0QTE2LjggMTYuOCAwIDAgMSA4NjQgNzM2YzAtNC4zMiAxLjc2LTguMzIgNC42NC0xMS4zNiA1LjkyLTUuOTIgMTYuNjQtNS45MiAyMi43MiAwIDIuODggMy4wNCA0LjY0IDcuMiA0LjY0IDExLjM2cy0xLjc2IDguMzItNC42NCAxMS4zNmMtMy4wNCAyLjg4LTcuMiA0LjY0LTExLjM2IDQuNjR6TTk0NCA2ODhjLTQuMTYgMC04LjMyLTEuNzYtMTEuMzYtNC42NGExNi4xNiAxNi4xNiAwIDAgMSAwLTIyLjcyYzUuOTItNS45MiAxNi44LTUuOTIgMjIuNzIgMCAyLjg4IDMuMDQgNC42NCA3LjA0IDQuNjQgMTEuMzYgMCA0LjE2LTEuNzYgOC4zMi00LjY0IDExLjM2LTMuMDQgMi44OC03LjIgNC42NC0xMS4zNiA0LjY0eiIvPjwvc3ZnPg==" parent="1" vertex="1">
          <mxGeometry x="269" y="676" width="119" height="119" as="geometry" />
        </mxCell>
        <mxCell id="c7gIeQ4KLr-0-EGLMsei-20" style="edgeStyle=orthogonalEdgeStyle;rounded=0;orthogonalLoop=1;jettySize=auto;html=1;exitX=1;exitY=0.5;exitDx=0;exitDy=0;exitPerimeter=0;entryX=0;entryY=0.5;entryDx=0;entryDy=0;entryPerimeter=0;endArrow=none;endFill=0;strokeColor=#4A919B;" parent="1" source="c7gIeQ4KLr-0-EGLMsei-9" target="c7gIeQ4KLr-0-EGLMsei-12" edge="1">
          <mxGeometry relative="1" as="geometry" />
        </mxCell>
        <mxCell id="c7gIeQ4KLr-0-EGLMsei-9" value="" style="fontColor=#0066CC;verticalAlign=top;verticalLabelPosition=bottom;labelPosition=center;align=center;html=1;outlineConnect=0;gradientColor=none;gradientDirection=north;strokeWidth=2;shape=mxgraph.networks.router;fillColor=#4A919B;fontSize=30;" parent="1" vertex="1">
          <mxGeometry x="470" y="631.5" width="133.33" height="40" as="geometry" />
        </mxCell>
        <mxCell id="c7gIeQ4KLr-0-EGLMsei-21" style="edgeStyle=orthogonalEdgeStyle;rounded=0;orthogonalLoop=1;jettySize=auto;html=1;exitX=1;exitY=0.5;exitDx=0;exitDy=0;exitPerimeter=0;entryX=0;entryY=0.5;entryDx=0;entryDy=0;entryPerimeter=0;endArrow=none;endFill=0;strokeColor=#4A919B;" parent="1" source="c7gIeQ4KLr-0-EGLMsei-11" target="c7gIeQ4KLr-0-EGLMsei-14" edge="1">
          <mxGeometry relative="1" as="geometry" />
        </mxCell>
        <mxCell id="c7gIeQ4KLr-0-EGLMsei-11" value="" style="fontColor=#0066CC;verticalAlign=top;verticalLabelPosition=bottom;labelPosition=center;align=center;html=1;outlineConnect=0;gradientColor=none;gradientDirection=north;strokeWidth=2;shape=mxgraph.networks.router;fillColor=#4A919B;fontSize=30;" parent="1" vertex="1">
          <mxGeometry x="470" y="860.5" width="133.33" height="40" as="geometry" />
        </mxCell>
        <mxCell id="c7gIeQ4KLr-0-EGLMsei-31" style="edgeStyle=none;rounded=0;orthogonalLoop=1;jettySize=auto;html=1;exitX=1;exitY=0.5;exitDx=0;exitDy=0;exitPerimeter=0;entryX=0;entryY=0.5;entryDx=0;entryDy=0;entryPerimeter=0;endArrow=none;endFill=0;elbow=vertical;strokeColor=#4A919B;" parent="1" source="c7gIeQ4KLr-0-EGLMsei-12" target="c7gIeQ4KLr-0-EGLMsei-15" edge="1">
          <mxGeometry relative="1" as="geometry" />
        </mxCell>
        <mxCell id="c7gIeQ4KLr-0-EGLMsei-12" value="" style="fontColor=#0066CC;verticalAlign=top;verticalLabelPosition=bottom;labelPosition=center;align=center;html=1;outlineConnect=0;gradientColor=none;gradientDirection=north;strokeWidth=2;shape=mxgraph.networks.router;fillColor=#4A919B;fontSize=30;" parent="1" vertex="1">
          <mxGeometry x="687" y="631.5" width="133.33" height="40" as="geometry" />
        </mxCell>
        <mxCell id="c7gIeQ4KLr-0-EGLMsei-39" style="edgeStyle=none;rounded=0;orthogonalLoop=1;jettySize=auto;html=1;exitX=1;exitY=0.5;exitDx=0;exitDy=0;exitPerimeter=0;entryX=0;entryY=0.5;entryDx=0;entryDy=0;entryPerimeter=0;endArrow=none;endFill=0;elbow=vertical;strokeColor=#4A919B;" parent="1" source="c7gIeQ4KLr-0-EGLMsei-14" target="c7gIeQ4KLr-0-EGLMsei-17" edge="1">
          <mxGeometry relative="1" as="geometry" />
        </mxCell>
        <mxCell id="c7gIeQ4KLr-0-EGLMsei-14" value="" style="fontColor=#0066CC;verticalAlign=top;verticalLabelPosition=bottom;labelPosition=center;align=center;html=1;outlineConnect=0;gradientColor=none;gradientDirection=north;strokeWidth=2;shape=mxgraph.networks.router;fillColor=#4A919B;fontSize=30;" parent="1" vertex="1">
          <mxGeometry x="687" y="860.5" width="133.33" height="40" as="geometry" />
        </mxCell>
        <mxCell id="c7gIeQ4KLr-0-EGLMsei-15" value="" style="fontColor=#0066CC;verticalAlign=top;verticalLabelPosition=bottom;labelPosition=center;align=center;html=1;outlineConnect=0;gradientColor=none;gradientDirection=north;strokeWidth=2;shape=mxgraph.networks.router;fillColor=#4A919B;fontSize=30;" parent="1" vertex="1">
          <mxGeometry x="897" y="631" width="133.33" height="40" as="geometry" />
        </mxCell>
        <mxCell id="c7gIeQ4KLr-0-EGLMsei-17" value="" style="fontColor=#0066CC;verticalAlign=top;verticalLabelPosition=bottom;labelPosition=center;align=center;html=1;outlineConnect=0;gradientColor=none;gradientDirection=north;strokeWidth=2;shape=mxgraph.networks.router;fillColor=#4A919B;fontSize=30;" parent="1" vertex="1">
          <mxGeometry x="897" y="860" width="133.33" height="40" as="geometry" />
        </mxCell>
        <mxCell id="c7gIeQ4KLr-0-EGLMsei-52" style="edgeStyle=none;rounded=0;orthogonalLoop=1;jettySize=auto;html=1;exitX=0;exitY=0.75;exitDx=0;exitDy=0;entryX=1;entryY=0.5;entryDx=0;entryDy=0;entryPerimeter=0;endArrow=none;endFill=0;elbow=vertical;strokeColor=#4A919B;" parent="1" source="c7gIeQ4KLr-0-EGLMsei-46" target="c7gIeQ4KLr-0-EGLMsei-17" edge="1">
          <mxGeometry relative="1" as="geometry" />
        </mxCell>
        <mxCell id="c7gIeQ4KLr-0-EGLMsei-54" style="edgeStyle=none;rounded=0;orthogonalLoop=1;jettySize=auto;html=1;exitX=0;exitY=0.75;exitDx=0;exitDy=0;entryX=1;entryY=0.5;entryDx=0;entryDy=0;entryPerimeter=0;endArrow=none;endFill=0;elbow=vertical;strokeColor=#4A919B;" parent="1" source="c7gIeQ4KLr-0-EGLMsei-46" target="c7gIeQ4KLr-0-EGLMsei-15" edge="1">
          <mxGeometry relative="1" as="geometry" />
        </mxCell>
        <mxCell id="c7gIeQ4KLr-0-EGLMsei-46" value="" style="shape=image;verticalLabelPosition=bottom;verticalAlign=top;imageAspect=0;aspect=fixed;image=data:image/svg+xml,PHN2ZyB4bWxuczp4bGluaz0iaHR0cDovL3d3dy53My5vcmcvMTk5OS94bGluayIgeG1sbnM9Imh0dHA6Ly93d3cudzMub3JnLzIwMDAvc3ZnIiBoZWlnaHQ9IjIwMCIgd2lkdGg9IjIwMCIgdmVyc2lvbj0iMS4xIiB2aWV3Qm94PSIwIDAgMTAyNCAxMDI0IiBjbGFzcz0iaWNvbiI+PGRlZnM+PHN0eWxlIHR5cGU9InRleHQvY3NzIj5AZm9udC1mYWNlIHsgZm9udC1mYW1pbHk6IGZlZWRiYWNrLWljb25mb250OyBzcmM6IHVybCgiLy9hdC5hbGljZG4uY29tL3QvZm9udF8xMDMxMTU4X3U2OXc4eWh4ZHUud29mZjI/dD0xNjMwMDMzNzU5OTQ0IikgZm9ybWF0KCJ3b2ZmMiIpLCB1cmwoIi8vYXQuYWxpY2RuLmNvbS90L2ZvbnRfMTAzMTE1OF91Njl3OHloeGR1LndvZmY/dD0xNjMwMDMzNzU5OTQ0IikgZm9ybWF0KCJ3b2ZmIiksIHVybCgiLy9hdC5hbGljZG4uY29tL3QvZm9udF8xMDMxMTU4X3U2OXc4eWh4ZHUudHRmP3Q9MTYzMDAzMzc1OTk0NCIpIGZvcm1hdCgidHJ1ZXR5cGUiKTsgfSYjeGE7PC9zdHlsZT48L2RlZnM+PHBhdGggZmlsbD0iIzRBOTE5QiIgZD0iTTk2MCA5NDRINjRjLTM1LjI5NiAwLTY0LTI4LjcwNC02NC02NFY2NTZjMC0zNS4yOTYgMjguNzA0LTY0IDY0LTY0aDg5NmMzNS4yOTYgMCA2NCAyOC43MDQgNjQgNjR2MjI0YzAgMzUuMjk2LTI4LjcwNCA2NC02NCA2NHpNNjQgNjI0Yy0xNy42NDggMC0zMiAxNC4zNTItMzIgMzJ2MjI0YzAgMTcuNjQ4IDE0LjM1MiAzMiAzMiAzMmg4OTZjMTcuNjQ4IDAgMzItMTQuMzUyIDMyLTMyVjY1NmMwLTE3LjY0OC0xNC4zNTItMzItMzItMzJINjR6Ii8+PHBhdGggZmlsbD0iIzRBOTE5QiIgZD0iTTI0MCAxMDA4SDExMmExNiAxNiAwIDAgMS0xNi0xNnYtNjRhMTYgMTYgMCAwIDEgMTYtMTZoMTI4YTE2IDE2IDAgMCAxIDE2IDE2djY0YTE2IDE2IDAgMCAxLTE2IDE2eiBtLTExMi0zMmg5NnYtMzJIMTI4djMyek05MTIgMTAwOGgtMTI4YTE2IDE2IDAgMCAxLTE2LTE2di02NGExNiAxNiAwIDAgMSAxNi0xNmgxMjhhMTYgMTYgMCAwIDEgMTYgMTZ2NjRhMTYgMTYgMCAwIDEtMTYgMTZ6IG0tMTEyLTMyaDk2di0zMmgtOTZ2MzJ6TTg1Ni42NTYgNDYwLjE2YTE1Ljk4NCAxNS45ODQgMCAwIDEtNi44MTYtMzAuNDk2QzkxNi43NjggMzk4LjI3MiA5NjAgMzMwLjA5NiA5NjAgMjU2YzAtMTA1Ljg3Mi04Ni4xMjgtMTkyLTE5Mi0xOTJTNTc2IDE1MC4xMjggNTc2IDI1NmMwIDc0LjA4IDQzLjIzMiAxNDIuMjcyIDExMC4xNiAxNzMuNjY0YTE2IDE2IDAgMCAxLTEzLjYgMjguOTc2QzU5NC40OCA0MjEuOTg0IDU0NCAzNDIuNDQ4IDU0NCAyNTZjMC0xMjMuNTIgMTAwLjQ4LTIyNCAyMjQtMjI0czIyNCAxMDAuNDggMjI0IDIyNGMwIDg2LjQ0OC01MC40NjQgMTY1Ljk4NC0xMjguNTYgMjAyLjY0YTE1Ljk2OCAxNS45NjggMCAwIDEtNi43ODQgMS41MnoiLz48cGF0aCBmaWxsPSIjNEE5MTlCIiBkPSJNODUzLjI5NiAzODcuODRhMTYgMTYgMCAwIDEtOS40ODgtMjguODk2QTEyOC4yNCAxMjguMjQgMCAwIDAgODk2IDI1NmMwLTcwLjU3Ni01Ny40MjQtMTI4LTEyOC0xMjhzLTEyOCA1Ny40MjQtMTI4IDEyOGExMjguMjQgMTI4LjI0IDAgMCAwIDUyLjE5MiAxMDIuOTQ0IDE2IDE2IDAgMCAxLTE4Ljk0NCAyNS43OTJBMTYwLjMzNiAxNjAuMzM2IDAgMCAxIDYwOCAyNTZjMC04OC4yMjQgNzEuNzc2LTE2MCAxNjAtMTYwczE2MCA3MS43NzYgMTYwIDE2MGMwIDUwLjYwOC0yNC4zODQgOTguNzItNjUuMjQ4IDEyOC43MzZhMTUuOTIgMTUuOTIgMCAwIDEtOS40NCAzLjEwNHoiLz48cGF0aCBmaWxsPSIjNEE5MTlCIiBkPSJNODQ3LjY5NiAyNzYuNDhhMTYgMTYgMCAwIDEtMTUuNjY0LTE5LjM5MkM4MzIgMjIwLjY4OCA4MDMuMzEyIDE5MiA3NjggMTkycy02NCAyOC43MDQtNjQgNjRjMS44NzIgOC42NC0zLjYzMiAxNy42OTYtMTIuMjcyIDE5LjU2OC04LjU5MiAxLjg4OC0xNy4xODQtMy4wNC0xOS4wNTYtMTEuNjhDNjcyIDI2MC43MzYgNjcyIDI1Ny44ODggNjcyIDI1NmMwLTUyLjk0NCA0My4wNTYtOTYgOTYtOTZzOTYgNDMuMDU2IDk2IDk2YzAgMS45MDQgMCA0Ljc1Mi0wLjY3MiA3Ljg3MmExNi4wMTYgMTYuMDE2IDAgMCAxLTE1LjYzMiAxMi42MDh6Ii8+PHBhdGggZmlsbD0iIzRBOTE5QiIgZD0iTTgwMC4zMiA2MjRINzM2YTE1LjkzNiAxNS45MzYgMCAwIDEtMTEuNTY4LTQuOTYgMTUuOTA0IDE1LjkwNCAwIDAgMS00LjQxNi0xMS43NmwxNS4yNjQtMzM2LjAxNmEzMi43MzYgMzIuNzM2IDAgMCAxIDY1LjQyNCAwbDE1LjEzNiAzMzIuODMyQTE2IDE2IDAgMCAxIDgwMC4zMiA2MjR6IG0tNDcuNTItMzJoMzAuNDQ4bC0xNC41MTItMzE5LjI5Nkw3NTIuOCA1OTJ6TTE0NCA4MTZjLTI2LjQ2NCAwLTQ4LTIxLjUzNi00OC00OHMyMS41MzYtNDggNDgtNDggNDggMjEuNTM2IDQ4IDQ4LTIxLjUzNiA0OC00OCA0OHogbTAtNjRhMTYgMTYgMCAxIDAgMC4wMTYgMzIuMDE2QTE2IDE2IDAgMCAwIDE0NCA3NTJ6TTI3MiA4MTZjLTI2LjQ2NCAwLTQ4LTIxLjUzNi00OC00OHMyMS41MzYtNDggNDgtNDggNDggMjEuNTM2IDQ4IDQ4LTIxLjUzNiA0OC00OCA0OHogbTAtNjRhMTYgMTYgMCAxIDAgMC4wMTYgMzIuMDE2QTE2IDE2IDAgMCAwIDI3MiA3NTJ6TTQwMCA4MTZjLTI2LjQ2NCAwLTQ4LTIxLjUzNi00OC00OHMyMS41MzYtNDggNDgtNDggNDggMjEuNTM2IDQ4IDQ4LTIxLjUzNiA0OC00OCA0OHogbTAtNjRhMTYgMTYgMCAxIDAgMC4wMTYgMzIuMDE2QTE2IDE2IDAgMCAwIDQwMCA3NTJ6TTk0NCA4ODBjLTQuMTYgMC04LjMyLTEuNzYtMTEuMzYtNC42NEExNi44IDE2LjggMCAwIDEgOTI4IDg2NGMwLTQuMzIgMS43Ni04LjMyIDQuNjQtMTEuMzYgNS45Mi01LjkyIDE2LjgtNS45MiAyMi43MiAwIDIuODggMy4wNCA0LjY0IDcuMiA0LjY0IDExLjM2cy0xLjc2IDguMzItNC42NCAxMS4zNmMtMy4wNCAyLjg4LTcuMiA0LjY0LTExLjM2IDQuNjR6TTg4MCA4ODBjLTQuMTYgMC04LjMyLTEuNzYtMTEuMzYtNC42NC0yLjg4LTMuMDQtNC42NC03LjItNC42NC0xMS4zNnMxLjc2LTguMzIgNC42NC0xMS4zNmM1LjkyLTUuOTIgMTYuNjQtNS45MiAyMi43MiAwIDIuODggMy4wNCA0LjY0IDcuMiA0LjY0IDExLjM2cy0xLjc2IDguMzItNC42NCAxMS4zNmMtMy4wNCAzLjA0LTcuMiA0LjY0LTExLjM2IDQuNjR6TTgxNiA4ODBjLTQuMzIgMC04LjMyLTEuNzYtMTEuMzYtNC42NC0yLjg4LTMuMDQtNC42NC03LjItNC42NC0xMS4zNnMxLjc2LTguMzIgNC42NC0xMS4zNmM1LjkyLTUuOTIgMTYuOC01LjkyIDIyLjcyIDAgMi44OCAzLjA0IDQuNjQgNy4yIDQuNjQgMTEuMzZzLTEuNzYgOC4zMi00LjY0IDExLjM2Yy0zLjA0IDIuODgtNy4yIDQuNjQtMTEuMzYgNC42NHpNNzUyIDg4MGMtNC4xNiAwLTguMzItMS43Ni0xMS4zNi00LjY0LTIuODgtMy4wNC00LjY0LTcuMi00LjY0LTExLjM2czEuNzYtOC4zMiA0LjY0LTExLjM2YzYuMDgtNS45MiAxNi42NC01LjkyIDIyLjcyIDAgMi44OCAzLjA0IDQuNjQgNy4yIDQuNjQgMTEuMzZzLTEuNzYgOC4zMi00LjY0IDExLjM2Yy0zLjA0IDIuODgtNy4yIDQuNjQtMTEuMzYgNC42NHpNOTQ0IDgxNmMtNC4xNiAwLTguMzItMS43Ni0xMS4zNi00LjY0QTE2LjggMTYuOCAwIDAgMSA5MjggODAwYzAtNC4zMiAxLjc2LTguMzIgNC42NC0xMS4zNiA1LjkyLTUuOTIgMTYuOC01LjkyIDIyLjcyIDAgMi44OCAzLjA0IDQuNjQgNy4yIDQuNjQgMTEuMzZzLTEuNzYgOC4zMi00LjY0IDExLjM2Yy0zLjA0IDIuODgtNy4yIDQuNjQtMTEuMzYgNC42NHpNODgwIDgxNmMtNC4xNiAwLTguMzItMS43Ni0xMS4zNi00LjY0QTE2LjggMTYuOCAwIDAgMSA4NjQgODAwYzAtNC4zMiAxLjc2LTguMzIgNC42NC0xMS4zNiA1LjkyLTUuOTIgMTYuNjQtNS45MiAyMi43MiAwIDIuODggMy4wNCA0LjY0IDcuMiA0LjY0IDExLjM2cy0xLjc2IDguMzItNC42NCAxMS4zNmMtMy4wNCAyLjg4LTcuMiA0LjY0LTExLjM2IDQuNjR6TTgxNiA4MTZjLTQuMTYgMC04LjMyLTEuNzYtMTEuMzYtNC42NC0yLjg4LTMuMDQtNC42NC03LjItNC42NC0xMS4zNnMxLjc2LTguMzIgNC42NC0xMS4zNmM1LjkyLTUuOTIgMTYuOC01LjkyIDIyLjcyIDAgMi44OCAzLjA0IDQuNjQgNy4yIDQuNjQgMTEuMzZzLTEuNzYgOC4zMi00LjY0IDExLjM2Yy0zLjA0IDIuODgtNy4yIDQuNjQtMTEuMzYgNC42NHpNOTQ0IDc1MmMtNC4xNiAwLTguMzItMS43Ni0xMS4zNi00LjY0QTE2LjggMTYuOCAwIDAgMSA5MjggNzM2YzAtNC4zMiAxLjc2LTguMzIgNC42NC0xMS4zNiA1LjkyLTUuOTIgMTYuOC01LjkyIDIyLjcyIDAgMi44OCAzLjA0IDQuNjQgNy4yIDQuNjQgMTEuMzZzLTEuNzYgOC4zMi00LjY0IDExLjM2Yy0zLjA0IDIuODgtNy4yIDQuNjQtMTEuMzYgNC42NHpNODgwIDc1MmMtNC4xNiAwLTguMzItMS43Ni0xMS4zNi00LjY0QTE2LjggMTYuOCAwIDAgMSA4NjQgNzM2YzAtNC4zMiAxLjc2LTguMzIgNC42NC0xMS4zNiA1LjkyLTUuOTIgMTYuNjQtNS45MiAyMi43MiAwIDIuODggMy4wNCA0LjY0IDcuMiA0LjY0IDExLjM2cy0xLjc2IDguMzItNC42NCAxMS4zNmMtMy4wNCAyLjg4LTcuMiA0LjY0LTExLjM2IDQuNjR6TTk0NCA2ODhjLTQuMTYgMC04LjMyLTEuNzYtMTEuMzYtNC42NGExNi4xNiAxNi4xNiAwIDAgMSAwLTIyLjcyYzUuOTItNS45MiAxNi44LTUuOTIgMjIuNzIgMCAyLjg4IDMuMDQgNC42NCA3LjA0IDQuNjQgMTEuMzYgMCA0LjE2LTEuNzYgOC4zMi00LjY0IDExLjM2LTMuMDQgMi44OC03LjIgNC42NC0xMS4zNiA0LjY0eiIvPjwvc3ZnPg==" parent="1" vertex="1">
          <mxGeometry x="1107" y="676" width="119" height="119" as="geometry" />
        </mxCell>
        <mxCell id="c7gIeQ4KLr-0-EGLMsei-55" value="" style="shape=flexArrow;endArrow=classic;startArrow=classic;html=1;shadow=0;startSize=5;sourcePerimeterSpacing=0;targetPerimeterSpacing=0;strokeColor=none;strokeWidth=10;fillColor=#FDD276;endSize=5;" parent="1" edge="1">
          <mxGeometry width="50" height="50" relative="1" as="geometry">
            <mxPoint x="1229" y="765.25" as="sourcePoint" />
            <mxPoint x="1329" y="764.5" as="targetPoint" />
          </mxGeometry>
        </mxCell>
        <mxCell id="c7gIeQ4KLr-0-EGLMsei-56" value="" style="shape=image;verticalLabelPosition=bottom;verticalAlign=top;imageAspect=0;aspect=fixed;image=data:image/svg+xml,PHN2ZyB4bWxuczp4bGluaz0iaHR0cDovL3d3dy53My5vcmcvMTk5OS94bGluayIgeG1sbnM9Imh0dHA6Ly93d3cudzMub3JnLzIwMDAvc3ZnIiBoZWlnaHQ9IjIwMCIgd2lkdGg9IjIwMCIgdmVyc2lvbj0iMS4xIiB2aWV3Qm94PSIwIDAgMTAyNCAxMDI0IiBjbGFzcz0iaWNvbiI+PGRlZnM+PHN0eWxlIHR5cGU9InRleHQvY3NzIj5AZm9udC1mYWNlIHsgZm9udC1mYW1pbHk6IGZlZWRiYWNrLWljb25mb250OyBzcmM6IHVybCgiLy9hdC5hbGljZG4uY29tL3QvZm9udF8xMDMxMTU4X3U2OXc4eWh4ZHUud29mZjI/dD0xNjMwMDMzNzU5OTQ0IikgZm9ybWF0KCJ3b2ZmMiIpLCB1cmwoIi8vYXQuYWxpY2RuLmNvbS90L2ZvbnRfMTAzMTE1OF91Njl3OHloeGR1LndvZmY/dD0xNjMwMDMzNzU5OTQ0IikgZm9ybWF0KCJ3b2ZmIiksIHVybCgiLy9hdC5hbGljZG4uY29tL3QvZm9udF8xMDMxMTU4X3U2OXc4eWh4ZHUudHRmP3Q9MTYzMDAzMzc1OTk0NCIpIGZvcm1hdCgidHJ1ZXR5cGUiKTsgfSYjeGE7PC9zdHlsZT48L2RlZnM+PHBhdGggZmlsbD0iIzRBOTE5QiIgZD0iTTg0Mi4zOTQ1OTUgNzk5LjczMzIzNyA2NDAuOTczMDc2IDc5OS43MzMyMzcgNjQwLjk3MzA3NiA5MTQuODI1NTA4bDU3LjU0OTAwNSAwYzE1LjkwMzg1MyAwIDI4Ljc3NDUwMyAxMi44NjkwOTkgMjguNzc0NTAzIDI4Ljc3MzMyNCAwIDE1LjkwMzIwMi0xMi44NzA2NDkgMjguNzcyMy0yOC43NzQ1MDMgMjguNzcyM0wzNTMuMjI4MDUgOTcyLjM3MTEzMmMtMTUuOTA0ODc3IDAtMjguNzc0NTAzLTEyLjg2OTA5OS0yOC43NzQ1MDMtMjguNzcyMyAwLTE1LjkwNDIyNSAxMi44Njk2MjYtMjguNzczMzI0IDI4Ljc3NDUwMy0yOC43NzMzMjRsNTcuNTQ5MDA1IDBMNDEwLjc3NzA1NSA3OTkuNzMzMjM3IDE4MC41ODEwMzQgNzk5LjczMzIzN2MtNjMuNTYyMTk5IDAtMTE1LjA5ODAxMS01MS41MzM3LTExNS4wOTgwMTEtMTE1LjA5MzI5NUw2NS40ODMwMjMgMTY2LjcyMDExNmMwLTYzLjU1OTU5NSA1MS41MzU4MTItMTE1LjA5MzI5NSAxMTUuMDk4MDExLTExNS4wOTMyOTVsNjYxLjgxMjUzNyAwYzYzLjU2MTE3NiAwIDExNS4wOTgwMTEgNTEuNTMzNyAxMTUuMDk4MDExIDExNS4wOTMyOTVsMCA1MTcuOTE5ODI2Qzk1Ny40OTE1ODIgNzQ4LjE5ODUxMyA5MDUuOTU1NzcgNzk5LjczMzIzNyA4NDIuMzk0NTk1IDc5OS43MzMyMzd6TTU4My40MjQwNzEgOTE0LjgyNTUwOCA1ODMuNDI0MDcxIDc5OS43MzMyMzcgNDY4LjMyNjA2IDc5OS43MzMyMzcgNDY4LjMyNjA2IDkxNC44MjU1MDggNTgzLjQyNDA3MSA5MTQuODI1NTA4ek04OTkuOTQyNTc3IDE2Ni43MjAxMTZjMC0zMS43Nzk3OTctMjUuNzY3OTA2LTU3LjU0NjY0Ny01Ny41NDc5ODItNTcuNTQ2NjQ3TDE4MC41ODEwMzQgMTA5LjE3MzQ2OGMtMzEuNzgxMDk5IDAtNTcuNTQ5MDA1IDI1Ljc2Njg1LTU3LjU0OTAwNSA1Ny41NDY2NDdsMCA0MDIuODI2NTMyTDg5OS45NDI1NzcgNTY5LjU0NjY0NyA4OTkuOTQyNTc3IDE2Ni43MjAxMTZ6TTg5OS45NDI1NzcgNjI3LjA5MzI5NSAxMjMuMDMzMDUyIDYyNy4wOTMyOTVsMCA1Ny41NDY2NDdjMCAzMS43Nzk3OTcgMjUuNzY3OTA2IDU3LjU0NTYyNCA1Ny41NDkwMDUgNTcuNTQ1NjI0bDY2MS44MTI1MzcgMGMzMS43ODEwOTkgMCA1Ny41NDc5ODItMjUuNzY2ODUgNTcuNTQ3OTgyLTU3LjU0NTYyNEw4OTkuOTQyNTc3IDYyNy4wOTMyOTV6Ii8+PC9zdmc+" parent="1" vertex="1">
          <mxGeometry x="1326" y="701.5" width="128" height="128" as="geometry" />
        </mxCell>
        <mxCell id="4BHxWYGBxrdO2DFo8VhY-1" value="&lt;font color=&quot;#4a919b&quot; style=&quot;font-size: 30px;&quot;&gt;cost = 100&lt;/font&gt;" style="text;html=1;strokeColor=none;fillColor=none;align=center;verticalAlign=middle;whiteSpace=wrap;rounded=0;" vertex="1" parent="1">
          <mxGeometry x="434" y="699" width="144" height="39" as="geometry" />
        </mxCell>
        <mxCell id="4BHxWYGBxrdO2DFo8VhY-2" value="&lt;font color=&quot;#535e80&quot; style=&quot;font-size: 30px;&quot;&gt;cost = 500&lt;/font&gt;" style="text;html=1;strokeColor=none;fillColor=none;align=center;verticalAlign=middle;whiteSpace=wrap;rounded=0;" vertex="1" parent="1">
          <mxGeometry x="450" y="806" width="158" height="39" as="geometry" />
        </mxCell>
        <mxCell id="4BHxWYGBxrdO2DFo8VhY-3" value="" style="curved=1;endArrow=classic;html=1;rounded=0;fontSize=20;fontColor=#535E80;dashed=1;strokeWidth=5;exitX=1;exitY=0;exitDx=0;exitDy=0;strokeColor=#4A919B;" edge="1" parent="1" source="c7gIeQ4KLr-0-EGLMsei-6">
          <mxGeometry width="50" height="50" relative="1" as="geometry">
            <mxPoint x="380" y="633" as="sourcePoint" />
            <mxPoint x="1158" y="658" as="targetPoint" />
            <Array as="points">
              <mxPoint x="468" y="617" />
              <mxPoint x="580" y="587" />
              <mxPoint x="717" y="572" />
              <mxPoint x="868" y="572" />
              <mxPoint x="1057" y="599" />
            </Array>
          </mxGeometry>
        </mxCell>
        <mxCell id="4BHxWYGBxrdO2DFo8VhY-4" value="" style="curved=1;endArrow=classic;html=1;rounded=0;fontSize=20;fontColor=#535E80;dashed=1;strokeWidth=5;exitX=1;exitY=0;exitDx=0;exitDy=0;strokeColor=#535E80;" edge="1" parent="1">
          <mxGeometry width="50" height="50" relative="1" as="geometry">
            <mxPoint x="367" y="838" as="sourcePoint" />
            <mxPoint x="1137" y="827" as="targetPoint" />
            <Array as="points">
              <mxPoint x="447" y="897" />
              <mxPoint x="559" y="927" />
              <mxPoint x="696" y="942" />
              <mxPoint x="847" y="942" />
              <mxPoint x="1069" y="911" />
            </Array>
          </mxGeometry>
        </mxCell>
        <mxCell id="4BHxWYGBxrdO2DFo8VhY-5" value="&lt;font style=&quot;font-size: 32px;&quot; color=&quot;#4a919b&quot;&gt;1.优先选成本低的路径&lt;/font&gt;" style="text;html=1;strokeColor=none;fillColor=none;align=center;verticalAlign=middle;whiteSpace=wrap;rounded=0;fontSize=20;fontColor=#535E80;" vertex="1" parent="1">
          <mxGeometry x="290" y="544" width="255" height="54" as="geometry" />
        </mxCell>
        <mxCell id="4BHxWYGBxrdO2DFo8VhY-6" value="&lt;font style=&quot;font-size: 32px;&quot;&gt;2.如果上面的链路断了，才会走这条链路&lt;/font&gt;" style="text;html=1;strokeColor=none;fillColor=none;align=center;verticalAlign=middle;whiteSpace=wrap;rounded=0;fontSize=20;fontColor=#535E80;" vertex="1" parent="1">
          <mxGeometry x="104" y="910" width="330" height="38" as="geometry" />
        </mxCell>
      </root>
    </mxGraphModel>
  </diagram>
</mxfile>
